<svg width="24" height="24" viewBox="0 0 24 24" fill="none" xmlns="http://www.w3.org/2000/svg"><rect width="24" height="24" fill="none" rx="0" ry="0"></rect><path fill-rule="evenodd" clip-rule="evenodd" d="M2.42677 20.984C2.27617 21.3859 2.66856 21.7782 3.07044 21.6276L8.82648 19.4706L8.82922 19.4678L9.67775 18.6193L17.3145 10.9826L18.163 10.134L20.8473 7.44976C21.2378 7.05924 21.2378 6.42607 20.8473 6.03555L18.0189 3.20712C17.6283 2.81659 16.9952 2.81659 16.6047 3.20712L13.9204 5.89139L13.0719 6.73992L5.43511 14.3767L4.58658 15.2252L4.58384 15.2279L2.42677 20.984ZM13.9217 7.58972L6.28491 15.2265L8.82922 17.7708L16.466 10.134L13.9217 7.58972ZM17.3145 9.2855L19.5065 7.09347C19.7018 6.89821 19.7018 6.58163 19.5065 6.38637L17.6693 4.54917C17.4741 4.3539 17.1575 4.3539 16.9622 4.54917L14.7702 6.7412L17.3145 9.2855ZM7.90546 18.5441L5.51154 16.1502L3.87947 20.1749L7.90546 18.5441Z" fill="#193170"></path></svg>