<svg width="24" height="24" fill="none" xmlns="http://www.w3.org/2000/svg"><rect width="24" height="24" rx="0" ry="0"/><path fill-rule="evenodd" clip-rule="evenodd" d="M5.626 4.099h13.747c.836 0 1.516.68 1.516 1.515v9.53c0 .838-.68 1.517-1.516 1.517h-7.625L7.91 20.485a.602.602 0 01-.655.128.6.6 0 01-.369-.553V16.66h-1.26c-.836 0-1.516-.68-1.516-1.516v-9.53c0-.836.68-1.516 1.515-1.516zm13.747 11.363a.318.318 0 00.317-.317v-9.53a.318.318 0 00-.317-.317H5.626a.318.318 0 00-.316.316v9.53c0 .176.143.318.316.318h1.86a.6.6 0 01.6.6v2.553l2.99-2.978a.6.6 0 01.423-.175h7.874zm-6.274-5.536h1.366a.6.6 0 010 1.2H13.1v1.366a.6.6 0 01-1.2 0v-1.367h-1.364a.6.6 0 010-1.199H11.9V8.561a.6.6 0 011.2 0v1.365z" fill="#fff"/></svg>