<svg width="24" height="24" viewBox="0 0 24 24" fill="none" xmlns="http://www.w3.org/2000/svg"><rect width="24" height="24" fill="none" rx="0" ry="0"></rect><path fill-rule="evenodd" clip-rule="evenodd" d="M6.4999 2.3999H19.4999C19.8299 2.3999 20.0999 2.6699 20.0999 2.9999V20.9999C20.0999 21.3299 19.8299 21.5999 19.4999 21.5999H6.4999C5.0699 21.5999 3.8999 20.4299 3.8999 18.9999V4.9999C3.8999 3.5699 5.0699 2.3999 6.4999 2.3999ZM8.2499 8.3499H15.7499C16.0799 8.3499 16.3499 8.0799 16.3499 7.7499C16.3499 7.4199 16.0799 7.1499 15.7499 7.1499H8.2499C7.9199 7.1499 7.6499 7.4199 7.6499 7.7499C7.6499 8.0799 7.9199 8.3499 8.2499 8.3499ZM8.2499 12.8499H15.7499C16.0799 12.8499 16.3499 12.5799 16.3499 12.2499C16.3499 11.9199 16.0799 11.6499 15.7499 11.6499H8.2499C7.9199 11.6499 7.6499 11.9199 7.6499 12.2499C7.6499 12.5799 7.9199 12.8499 8.2499 12.8499ZM18.9001 20.3999H6.5001C5.7301 20.3999 5.1001 19.7699 5.1001 18.9999C5.1001 18.2299 5.7301 17.5999 6.5001 17.5999H18.9001V20.3999Z" fill="#ffffff"></path></svg>