<svg width="24" height="24" viewBox="0 0 24 24" fill="none" xmlns="http://www.w3.org/2000/svg"><rect width="24" height="24" fill="none" rx="0" ry="0"></rect><path fill-rule="evenodd" clip-rule="evenodd" d="M16.4043 7.80811H17.6035C17.6035 5.15674 15.4473 3 12.7959 3C10.8474 3 9.16631 4.16481 8.41194 5.83473C7.88158 5.26334 7.12445 4.90527 6.28516 4.90527C4.68457 4.90527 3.38281 6.20752 3.38281 7.80811H4.58203C4.58203 6.86914 5.34668 6.10547 6.28516 6.10547C7.22363 6.10547 7.98828 6.86914 7.98828 7.80811H9.1875C9.1875 5.81885 10.8066 4.2002 12.7959 4.2002C14.7852 4.2002 16.4043 5.81885 16.4043 7.80811ZM3.44629 20.8848H16.4561C17.2529 20.8848 17.9014 20.2358 17.9014 19.4385V17.4263H18.4814V18.4116C18.4814 19.0156 18.9727 19.5068 19.5762 19.5068H20.9863C21.5898 19.5068 22.0801 19.0156 22.0801 18.4116V11.2983C22.0801 10.6943 21.5898 10.2031 20.9863 10.2031H19.5762C18.9727 10.2031 18.4814 10.6943 18.4814 11.2983V12.2837H17.9014V10.2715C17.9014 9.47412 17.2529 8.8252 16.4561 8.8252H3.44629C2.64844 8.8252 2 9.47412 2 10.2715V19.4385C2 20.2358 2.64844 20.8848 3.44629 20.8848ZM17.9014 13.4839V16.2261H19.6807V18.3066H20.8809V11.4033H19.6807V13.4839H17.9014ZM16.7021 12.2837V10.2715C16.7021 10.1357 16.5918 10.0254 16.4561 10.0254H3.44629C3.31055 10.0254 3.19922 10.1357 3.19922 10.2715V19.4385C3.19922 19.5742 3.31055 19.6846 3.44629 19.6846H16.4561C16.5918 19.6846 16.7021 19.5742 16.7021 19.4385V17.4263V12.2837ZM5.50571 13.2476H9.44764V11.2476H5.50571V13.2476Z" fill="#193170"></path></svg>